<mxfile host="app.diagrams.net" agent="Mozilla/5.0 (Windows NT 10.0; Win64; x64) AppleWebKit/537.36 (KHTML, like Gecko) Chrome/129.0.0.0 Safari/537.36" version="24.7.16">
  <diagram name="Page-1" id="moo8fKtflTHgWnE00Sq2">
    <mxGraphModel dx="794" dy="418" grid="1" gridSize="10" guides="1" tooltips="1" connect="1" arrows="1" fold="1" page="1" pageScale="1" pageWidth="850" pageHeight="1100" math="0" shadow="0">
      <root>
        <mxCell id="0" />
        <mxCell id="1" parent="0" />
        <mxCell id="5Gi4OQ30tRiW42IGiZKr-1" value="GitFlow Branches" style="rounded=0;whiteSpace=wrap;html=1;" vertex="1" parent="1">
          <mxGeometry x="352.5" y="40" width="190" height="60" as="geometry" />
        </mxCell>
        <mxCell id="5Gi4OQ30tRiW42IGiZKr-2" value="" style="strokeWidth=2;html=1;shape=mxgraph.flowchart.annotation_2;align=left;labelPosition=right;pointerEvents=1;rotation=90;" vertex="1" parent="1">
          <mxGeometry x="425" y="-110" width="45" height="461.25" as="geometry" />
        </mxCell>
        <mxCell id="5Gi4OQ30tRiW42IGiZKr-5" value="Master" style="rounded=0;whiteSpace=wrap;html=1;" vertex="1" parent="1">
          <mxGeometry x="170" y="140" width="100" height="40" as="geometry" />
        </mxCell>
        <mxCell id="5Gi4OQ30tRiW42IGiZKr-6" value="Develop" style="rounded=0;whiteSpace=wrap;html=1;" vertex="1" parent="1">
          <mxGeometry x="280" y="230" width="90" height="40" as="geometry" />
        </mxCell>
        <mxCell id="5Gi4OQ30tRiW42IGiZKr-17" value="" style="line;strokeWidth=2;direction=south;html=1;" vertex="1" parent="1">
          <mxGeometry x="320" y="120" width="10" height="110" as="geometry" />
        </mxCell>
        <mxCell id="5Gi4OQ30tRiW42IGiZKr-20" value="&lt;font style=&quot;font-size: 12px;&quot;&gt;Feature&lt;/font&gt;" style="rounded=0;whiteSpace=wrap;html=1;" vertex="1" parent="1">
          <mxGeometry x="396.25" y="170" width="102.5" height="40" as="geometry" />
        </mxCell>
        <mxCell id="5Gi4OQ30tRiW42IGiZKr-21" value="Release" style="rounded=0;whiteSpace=wrap;html=1;" vertex="1" parent="1">
          <mxGeometry x="520" y="220" width="110" height="50" as="geometry" />
        </mxCell>
        <mxCell id="5Gi4OQ30tRiW42IGiZKr-22" value="Hotfix" style="rounded=0;whiteSpace=wrap;html=1;" vertex="1" parent="1">
          <mxGeometry x="630" y="140" width="100" height="45" as="geometry" />
        </mxCell>
        <mxCell id="5Gi4OQ30tRiW42IGiZKr-23" value="" style="line;strokeWidth=2;direction=south;html=1;" vertex="1" parent="1">
          <mxGeometry x="442.5" y="120" width="10" height="50" as="geometry" />
        </mxCell>
        <mxCell id="5Gi4OQ30tRiW42IGiZKr-24" value="" style="line;strokeWidth=2;direction=south;html=1;" vertex="1" parent="1">
          <mxGeometry x="570" y="120" width="10" height="100" as="geometry" />
        </mxCell>
      </root>
    </mxGraphModel>
  </diagram>
</mxfile>
